<svg width="254" height="152" viewBox="0 0 254 152" fill="none" xmlns="http://www.w3.org/2000/svg">
<g clip-path="url(#clip0_2_1857)">
<path d="M194.468 150.281C191.216 147.531 189.241 143.186 189.759 138.956C190.277 134.726 193.486 130.838 197.647 129.94C201.809 129.042 206.553 131.528 207.817 135.597C208.513 127.752 209.315 119.578 213.482 112.897C217.255 106.847 223.79 102.519 230.873 101.744C237.956 100.97 245.413 103.895 249.83 109.49C254.248 115.086 255.329 123.221 252.235 129.645C249.956 134.378 245.758 137.9 241.358 140.765C227.142 149.946 210.092 153.68 193.345 151.279L194.468 150.281Z" fill="#F2F2F2"/>
<path d="M242.826 104.057C236.982 108.822 231.621 114.15 226.82 119.967C219.306 129.038 213.226 139.208 208.791 150.123C208.466 150.919 209.758 151.266 210.079 150.478C217.335 132.739 228.919 117.104 243.771 105.002C244.438 104.459 243.488 103.518 242.826 104.057Z" fill="white"/>
<path d="M81.7667 149.534C86.2332 145.756 88.9462 139.789 88.2347 133.979C87.5232 128.169 83.1165 122.829 77.4004 121.595C71.6842 120.361 65.1682 123.776 63.4321 129.365C62.4766 118.59 61.3755 107.363 55.652 98.1865C50.4694 89.8775 41.4932 83.9321 31.7649 82.8685C22.0367 81.8049 11.7941 85.8221 5.72699 93.5077C-0.340155 101.193 -1.82567 112.367 2.4236 121.19C5.55389 127.691 11.321 132.528 17.3635 136.464C36.641 149.019 60.5549 154.256 83.3092 150.904" fill="#F2F2F2"/>
<path d="M15.3471 86.0448C23.374 92.589 30.738 99.9083 37.3323 107.897C43.9277 115.877 49.7342 124.479 54.6703 133.581C57.4294 138.687 59.9079 143.94 62.0948 149.316C62.5407 150.41 60.7664 150.886 60.3255 149.805C56.4519 140.326 51.6595 131.25 46.0171 122.707C40.4021 114.195 33.9754 106.248 26.8273 98.9785C22.7844 94.8687 18.5187 90.9845 14.0496 87.3434C13.1336 86.5968 14.4386 85.3043 15.3471 86.0448Z" fill="white"/>
<path d="M182.325 151.667H75.7621V42.2272C75.7621 18.943 94.6872 0 117.949 0H140.138C163.4 0 182.325 18.943 182.325 42.2272V151.667Z" fill="#F2F2F2"/>
<path d="M160.137 151.667H75.7621V42.2272C75.7388 33.3052 78.5613 24.6087 83.8188 17.4039C84.0126 17.1395 84.2059 16.8785 84.4052 16.6204C86.9482 13.282 89.9744 10.3419 93.384 7.89719C93.5766 7.75692 93.77 7.61909 93.9662 7.48125C96.8193 5.50502 99.9055 3.88949 103.155 2.67144C103.348 2.59824 103.544 2.52489 103.74 2.45454C106.679 1.40488 109.725 0.685858 112.823 0.310767C113.015 0.284511 113.212 0.263964 113.409 0.243418C116.428 -0.0796337 119.472 -0.0796337 122.49 0.243418C122.687 0.263964 122.884 0.284508 123.078 0.311048C126.175 0.686164 129.221 1.40509 132.158 2.45456C132.355 2.5249 132.551 2.59824 132.745 2.67159C135.954 3.87428 139.004 5.4657 141.826 7.41033C142.023 7.54518 142.219 7.68302 142.412 7.82085C144.323 9.18637 146.119 10.7076 147.779 12.3691C149.111 13.7018 150.352 15.1224 151.494 16.6213C151.693 16.8786 151.886 17.1395 152.08 17.4035C157.337 24.6084 160.16 33.305 160.137 42.2272V151.667Z" fill="#CCCCCC"/>
<path d="M153.276 102.719C155.856 102.719 157.947 100.625 157.947 98.0431C157.947 95.4608 155.856 93.3674 153.276 93.3674C150.696 93.3674 148.605 95.4608 148.605 98.0431C148.605 100.625 150.696 102.719 153.276 102.719Z" fill="#6C63FF"/>
<path d="M173.596 148.389H170.016L168.313 134.57L173.596 134.571L173.596 148.389Z" fill="#FFB8B8"/>
<path d="M167.459 147.366H174.362V151.716H163.113C163.113 151.145 163.226 150.579 163.444 150.051C163.662 149.523 163.983 149.044 164.386 148.64C164.79 148.236 165.269 147.915 165.796 147.697C166.324 147.478 166.889 147.366 167.459 147.366Z" fill="#2F2E41"/>
<path d="M191.405 148.389H187.825L186.122 134.57L191.405 134.571L191.405 148.389Z" fill="#FFB8B8"/>
<path d="M185.269 147.366H192.172V151.716H180.922C180.922 151.145 181.035 150.579 181.253 150.051C181.472 149.523 181.792 149.044 182.195 148.64C182.599 148.236 183.078 147.915 183.605 147.697C184.133 147.478 184.698 147.366 185.269 147.366Z" fill="#2F2E41"/>
<path d="M155.64 98.9694C155.382 98.5896 155.211 98.158 155.138 97.7049C155.066 97.2517 155.093 96.7882 155.219 96.3467C155.344 95.9053 155.565 95.4968 155.865 95.1501C156.165 94.8033 156.538 94.5266 156.957 94.3396L169.124 60.7721L175.111 64.0425L161.219 96.1208C161.486 96.8457 161.478 97.6436 161.197 98.3632C160.916 99.0829 160.381 99.6743 159.693 100.025C159.006 100.377 158.213 100.463 157.466 100.268C156.719 100.074 156.069 99.6115 155.64 98.9694Z" fill="#FFB8B8"/>
<path d="M189.576 105.277C189.179 105.049 188.836 104.736 188.572 104.36C188.308 103.985 188.129 103.557 188.049 103.105C187.968 102.653 187.988 102.189 188.106 101.745C188.224 101.302 188.437 100.89 188.732 100.538L184.962 65.0292L191.776 65.3408L193.342 100.268C193.9 100.802 194.243 101.523 194.305 102.293C194.368 103.063 194.146 103.83 193.682 104.447C193.218 105.064 192.543 105.49 191.787 105.643C191.03 105.796 190.244 105.666 189.576 105.277Z" fill="#FFB8B8"/>
<path d="M178.707 54.5545C182.667 54.5545 185.877 51.3411 185.877 47.3771C185.877 43.413 182.667 40.1996 178.707 40.1996C174.746 40.1996 171.536 43.413 171.536 47.3771C171.536 51.3411 174.746 54.5545 178.707 54.5545Z" fill="#FFB8B8"/>
<path d="M189.531 97.2011H167.912L167.938 97.0327C167.977 96.781 171.791 71.7727 168.978 63.5911C168.696 62.7871 168.721 61.907 169.048 61.1202C169.375 60.3334 169.981 59.6955 170.75 59.3294C174.771 57.4342 182.489 55.1005 189.003 60.764C189.962 61.6111 190.71 62.6698 191.19 63.8565C191.669 65.0431 191.866 66.325 191.765 67.601L189.531 97.2011Z" fill="#6C63FF"/>
<path d="M172.064 75.4685L162.332 73.4921L166.894 62.6709C167.167 61.6228 167.844 60.7259 168.777 60.1769C169.71 59.6278 170.822 59.4716 171.87 59.7423C172.917 60.0131 173.815 60.6887 174.366 61.6211C174.917 62.5534 175.075 63.6664 174.807 64.7158L172.064 75.4685Z" fill="#6C63FF"/>
<path d="M184.53 79.1382L183.945 65.7128C183.501 63.189 184.944 60.8032 187.164 60.4132C189.384 60.0247 191.553 61.7751 191.998 64.3174L194.198 76.8622L184.53 79.1382Z" fill="#6C63FF"/>
<path d="M188.811 95.5938C192.29 108.854 192.669 125.714 191.731 144.104L187.06 143.52L178.593 108.452L173.922 144.104L168.667 143.812C167.097 124.516 165.568 107.951 168.083 97.055L188.811 95.5938Z" fill="#2F2E41"/>
<path d="M183.432 52.924C182.094 54.3503 179.609 53.5846 179.435 51.6361C179.422 51.4848 179.423 51.3325 179.438 51.1815C179.528 50.3183 180.026 49.5347 179.907 48.6234C179.88 48.3966 179.796 48.1804 179.662 47.9954C178.596 46.5666 176.093 48.6345 175.087 47.341C174.47 46.5479 175.196 45.2992 174.722 44.4127C174.097 43.2428 172.247 43.8199 171.086 43.1792C169.795 42.4663 169.872 40.4833 170.722 39.2771C171.759 37.8062 173.576 37.0213 175.371 36.9081C177.166 36.795 178.948 37.2807 180.624 37.9343C182.528 38.6769 184.416 39.7033 185.587 41.379C187.012 43.4167 187.149 46.1563 186.437 48.5391C186.003 49.9886 184.524 51.7592 183.432 52.924Z" fill="#2F2E41"/>
<path d="M245.236 151.855H29.6881C29.5961 151.855 29.5079 151.818 29.443 151.753C29.378 151.688 29.3415 151.599 29.3415 151.507C29.3415 151.415 29.378 151.327 29.443 151.262C29.5079 151.196 29.5961 151.16 29.6881 151.159H245.236C245.328 151.16 245.416 151.196 245.481 151.262C245.546 151.327 245.583 151.415 245.583 151.507C245.583 151.599 245.546 151.688 245.481 151.753C245.416 151.818 245.328 151.855 245.236 151.855Z" fill="#3F3D56"/>
<path d="M136.926 119.96H98.9724C98.4726 119.963 97.9921 119.767 97.6363 119.416C97.2805 119.064 97.0786 118.586 97.0747 118.086V33.2894C97.0786 32.7891 97.2805 32.3108 97.6363 31.9593C97.9921 31.6079 98.4726 31.412 98.9724 31.4147H136.926C137.426 31.412 137.907 31.6079 138.263 31.9593C138.618 32.3108 138.82 32.7891 138.824 33.2894V118.086C138.82 118.586 138.618 119.064 138.263 119.416C137.907 119.767 137.426 119.963 136.926 119.96Z" fill="white"/>
<path d="M138.824 58.8521H97.0747V59.4365H138.824V58.8521Z" fill="#CCCCCC"/>
<path d="M138.97 92.1985H97.2207V92.783H138.97V92.1985Z" fill="#CCCCCC"/>
<path d="M110.797 31.4147H110.213V120.253H110.797V31.4147Z" fill="#CCCCCC"/>
<path d="M125.394 31.4147H124.81V120.253H125.394V31.4147Z" fill="#CCCCCC"/>
</g>
<defs>
<clipPath id="clip0_2_1857">
<rect width="254" height="152" fill="white"/>
</clipPath>
</defs>
</svg>
