<svg width="251" height="201" viewBox="0 0 251 201" fill="none" xmlns="http://www.w3.org/2000/svg">
<g clip-path="url(#clip0_2_993)">
<path d="M100.142 93.6777C97.5974 96.0759 94.2975 96.7068 92.7717 95.087C91.246 93.4672 92.0721 90.21 94.617 87.8119C95.731 86.7621 96.9896 86.0511 98.1808 85.7191L109.092 75.6928L113.687 80.9143L102.443 90.2441C102.041 91.4136 101.256 92.628 100.142 93.6777Z" fill="#FFB6B6"/>
<path d="M157.544 196.857L152.284 196.856L149.782 176.564L157.545 176.565L157.544 196.857Z" fill="#FFB6B6"/>
<path d="M139.523 196.737C139.359 197.013 139.273 197.904 139.273 198.224C139.273 199.211 140.072 200.01 141.058 200.01H157.347C158.019 200.01 158.565 199.465 158.565 198.792V198.114C158.565 198.114 159.37 196.075 157.711 193.562C157.711 193.562 155.65 195.53 152.569 192.448L151.66 190.802L145.083 195.613L141.438 196.061C140.64 196.16 139.933 196.046 139.523 196.737Z" fill="#2F2E41"/>
<path d="M194.443 193.868L189.272 194.829L183.107 175.335L190.74 173.917L194.443 193.868Z" fill="#FFB6B6"/>
<path d="M176.704 197.042C176.593 197.343 176.671 198.235 176.73 198.55C176.91 199.52 177.841 200.16 178.811 199.98L194.826 197.005C195.487 196.882 195.923 196.246 195.801 195.585L195.677 194.918C195.677 194.918 196.097 192.766 194.007 190.599C194.007 190.599 192.339 192.91 188.747 190.443L187.553 188.99L181.965 194.921L178.463 196.028C177.697 196.27 176.981 196.288 176.704 197.042Z" fill="#2F2E41"/>
<path d="M181.555 96.5728L194.51 183.334L182.45 184.907L161.475 116.2L158.853 187.005H147.612C147.612 187.005 137.903 108.858 140.775 99.417C143.646 89.9764 181.555 96.5728 181.555 96.5728Z" fill="#2F2E41"/>
<path d="M153.61 27.0388H166.194L168.03 31.4969C168.03 31.4969 175.371 35.6927 175.371 37.2662C175.371 38.8396 179.828 78.4378 179.828 78.4378L182.188 100.204C182.188 100.204 154.658 114.102 141.025 99.9415L143.646 75.8154C143.646 75.8154 141.549 38.0529 142.598 36.4795C143.646 34.906 151.512 31.2347 151.512 31.2347L153.61 27.0388Z" fill="#6C63FF"/>
<path d="M149.673 33.8046C149.673 33.8046 153.509 39.6017 152.299 41.9865C151.088 44.3712 132.203 67.2578 132.203 67.2578L109.416 86.0268L102.737 80.0985L124.2 59.6194L138.068 39.163C140.275 34.9523 145.038 32.7532 149.673 33.8046Z" fill="#6C63FF"/>
<path d="M192.947 109.154C193.495 112.608 192.158 115.691 189.96 116.04C187.762 116.388 185.537 113.871 184.989 110.417C184.749 108.905 184.871 107.464 185.267 106.293L183.13 91.6284L190.031 90.7715L191.406 105.319C192.146 106.31 192.707 107.642 192.947 109.154Z" fill="#FFB6B6"/>
<path d="M166.105 34.3781C166.105 34.3781 176.956 31.9489 178.928 37.9681C180.899 43.9873 192.746 101.082 192.746 101.082L183.721 102.081L176.944 62.9657L166.105 34.3781Z" fill="#6C63FF"/>
<path d="M160.333 24.1192C166.309 24.1192 171.153 19.274 171.153 13.297C171.153 7.32011 166.309 2.47485 160.333 2.47485C154.358 2.47485 149.514 7.32011 149.514 13.297C149.514 19.274 154.358 24.1192 160.333 24.1192Z" fill="#FFB6B6"/>
<path d="M166.664 22.4861C165.97 22.5198 165.054 22.3876 164.938 21.7027C164.856 21.2195 165.264 20.803 165.647 20.4979C166.182 20.0725 166.746 19.6759 167.205 19.1701C167.664 18.6643 168.018 18.0247 168.027 17.3415C168.036 16.6582 167.629 15.9454 166.975 15.7465C166.321 15.5476 165.506 16.0337 165.496 16.717C164.866 15.7599 164.783 14.5539 164.75 13.4084C164.73 12.7381 164.722 12.0675 164.724 11.3969C164.727 10.4808 164.75 9.5649 164.773 8.64907C164.323 8.62536 160.689 9.99323 160.164 9.99323C159.713 9.99323 156.09 9.27386 156.331 8.24151C156.26 8.90133 152.804 10.0898 152.733 9.74445C152.663 9.39909 152.405 9.03459 152.053 9.05521C151.682 9.07695 151.481 9.48812 151.356 9.83816C151.078 10.6197 150.401 11.9703 149.677 11.5667C144.192 8.51152 148.614 7.55997 149.264 6.3175C150.063 4.79021 150.915 3.20124 152.336 2.22689C153.758 1.25254 154.88 0.0891481 155.999 1.39929C158.808 -0.648617 161.595 -0.15463 164.869 1.01316C168.143 2.18094 170.762 5.03822 171.641 8.4017C172.044 9.94341 173.124 10.6199 172.319 11.9953C173.206 13.1849 172.726 12.5119 172.901 13.9853C173.039 15.1479 172.923 16.375 172.347 17.3939C171.731 18.4825 170.642 19.2398 169.476 19.6937C168.311 20.1476 168.11 22.4272 166.872 22.6057" fill="#2F2E41"/>
<path d="M220.417 191.751C221.5 191.818 222.099 190.472 221.279 189.688L221.197 189.363C221.208 189.337 221.219 189.312 221.23 189.286C222.325 186.673 226.038 186.691 227.124 189.308C228.089 191.63 229.316 193.956 229.618 196.412C229.754 197.496 229.693 198.6 229.452 199.664C231.711 194.728 232.9 189.339 232.9 183.919C232.9 182.557 232.826 181.195 232.673 179.837C232.548 178.726 232.375 177.621 232.152 176.527C230.943 170.613 228.324 164.979 224.548 160.274C222.733 159.281 221.219 157.73 220.304 155.87C219.976 155.199 219.719 154.478 219.597 153.743C219.803 153.77 220.376 150.623 220.22 150.43C220.508 149.993 221.023 149.775 221.337 149.349C222.901 147.228 225.056 147.599 226.181 150.48C228.583 151.693 228.607 153.705 227.132 155.64C226.194 156.87 226.065 158.536 225.242 159.854C225.327 159.962 225.415 160.067 225.5 160.176C227.053 162.167 228.395 164.308 229.528 166.558C229.208 164.058 229.68 161.046 230.485 159.105C231.402 156.893 233.12 155.03 234.633 153.118C236.451 150.821 240.178 151.824 240.498 154.735C240.501 154.763 240.504 154.792 240.507 154.82C240.282 154.947 240.062 155.081 239.847 155.224C238.62 156.035 239.044 157.937 240.498 158.162L240.531 158.167C240.449 158.976 240.31 159.779 240.107 160.568C242.048 168.077 237.858 170.812 231.874 170.934C231.742 171.002 231.613 171.07 231.481 171.134C232.087 172.842 232.572 174.593 232.931 176.368C233.252 177.936 233.476 179.522 233.601 181.114C233.757 183.123 233.743 185.142 233.574 187.147L233.584 187.076C234.014 184.867 235.213 182.804 236.954 181.375C239.547 179.244 243.211 178.459 246.009 176.747C247.356 175.922 249.082 176.988 248.847 178.549L248.835 178.624C248.419 178.793 248.012 178.99 247.619 179.21C247.395 179.337 247.174 179.472 246.959 179.614C245.733 180.425 246.156 182.328 247.61 182.552L247.643 182.557C247.667 182.56 247.687 182.564 247.711 182.567C246.996 184.264 246 185.84 244.754 187.198C243.54 193.752 238.327 194.374 232.751 192.466H232.748C232.138 195.121 231.247 197.716 230.103 200.189H220.653C220.619 200.084 220.589 199.976 220.558 199.871C221.432 199.925 222.313 199.874 223.173 199.715C222.472 198.854 221.771 197.987 221.07 197.127C221.053 197.11 221.039 197.093 221.026 197.076C220.67 196.636 220.311 196.199 219.956 195.758L219.955 195.758C219.933 194.406 220.095 193.058 220.417 191.751Z" fill="#F2F2F2"/>
<path d="M0 200.376C0 200.722 0.277932 201 0.624031 201H250.376C250.722 201 251 200.722 251 200.376C251 200.03 250.722 199.752 250.376 199.752H0.624031C0.277932 199.752 0 200.03 0 200.376Z" fill="#CCCCCC"/>
<path d="M56.364 143.628L56.2929 142.581C58.3386 142.442 60.3898 142.162 62.3892 141.748L62.6017 142.775C60.5557 143.199 58.4572 143.486 56.364 143.628ZM50.0614 143.535C47.9452 143.344 45.8534 143.041 43.8442 142.634L44.0526 141.605C46.0241 142.005 48.0776 142.303 50.1556 142.49L50.0614 143.535ZM68.6655 141.077L68.3137 140.088C70.2411 139.402 72.1392 138.576 73.9558 137.632L74.4392 138.563C72.5803 139.529 70.6378 140.375 68.6655 141.077ZM37.7686 141.011C35.7598 140.337 33.8013 139.532 31.9478 138.618L32.4113 137.677C34.223 138.57 36.1374 139.357 38.102 140.016L37.7686 141.011ZM26.5108 135.44C24.7795 134.252 23.1237 132.929 21.5897 131.506L22.3031 130.736C23.7994 132.125 25.4147 133.416 27.1038 134.574L26.5108 135.44ZM79.8129 135.286L79.2072 134.43C80.8776 133.248 82.4824 131.939 83.9772 130.542L84.6931 131.308C83.164 132.738 81.522 134.076 79.8129 135.286ZM17.2962 126.886C15.9914 125.257 14.7885 123.51 13.7214 121.694L14.6257 121.162C15.6673 122.935 16.8412 124.64 18.1145 126.23L17.2962 126.886ZM88.9914 126.707L88.1783 126.044C89.472 124.455 90.6677 122.763 91.7316 121.016L92.6272 121.562C91.5385 123.35 90.3154 125.08 88.9914 126.707ZM10.9167 116.053C10.1207 114.129 9.44399 112.121 8.90553 110.085L9.91945 109.816C10.4459 111.808 11.1075 113.771 11.8856 115.651L10.9167 116.053ZM95.5289 115.971L94.5672 115.552C95.3837 113.675 96.0774 111.723 96.6289 109.749L97.6387 110.032C97.0744 112.051 96.3646 114.05 95.5289 115.971ZM7.69574 103.905C7.42767 101.833 7.29069 99.7187 7.28889 97.6234L8.33763 97.6223C8.33943 99.6736 8.47334 101.742 8.73578 103.771L7.69574 103.905ZM98.9133 103.864L97.8742 103.722C98.1492 101.701 98.2885 99.6347 98.2885 97.5814L98.2883 97.4866H99.337L99.3373 97.5773C99.3373 99.6818 99.1946 101.796 98.9133 103.864ZM8.72528 91.473L7.68473 91.3398C7.95075 89.2558 8.35402 87.176 8.88351 85.159L9.89794 85.4254C9.37997 87.3986 8.98542 89.4335 8.72528 91.473ZM97.8617 91.3475C97.5813 89.3182 97.1578 87.2913 96.6038 85.3232L97.6131 85.0389C98.1805 87.0528 98.6134 89.1272 98.9007 91.2041L97.8617 91.3475ZM11.8533 79.5877L10.8834 79.1882C11.6856 77.2401 12.6253 75.3414 13.6761 73.5449L14.5814 74.0745C13.5547 75.8293 12.6368 77.6842 11.8533 79.5877ZM94.5317 79.5283C93.7133 77.6568 92.7568 75.8221 91.6883 74.075L92.5829 73.5275C93.6765 75.3153 94.6553 77.193 95.4926 79.1083L94.5317 79.5283ZM88.1278 69.0571C86.8333 67.4729 85.4174 65.962 83.9193 64.5665L84.6342 63.7988C86.1668 65.2267 87.6155 66.7725 88.94 68.3933L88.1278 69.0571ZM18.0587 69.0021L17.2389 68.348C18.549 66.7052 19.989 65.1491 21.5183 63.723L22.2337 64.4902C20.7415 65.8816 19.3369 67.3994 18.0587 69.0021ZM79.1408 60.6865C77.4653 59.5056 75.6951 58.4305 73.879 57.4909L74.3608 56.5593C76.2192 57.5206 78.0307 58.6208 79.7451 59.8291L79.1408 60.6865ZM27.0255 60.6416L26.4304 59.7776C28.1436 58.5975 29.9704 57.5242 31.8603 56.5872L32.3263 57.527C30.4807 58.4418 28.6974 59.4897 27.0255 60.6416ZM38.0119 55.1758L37.6765 54.1819C39.6239 53.5248 41.6671 52.975 43.7492 52.5483L43.9597 53.5758C41.9198 53.994 39.9186 54.5323 38.0119 55.1758ZM68.2295 55.0442C66.3002 54.3617 64.3041 53.8073 62.2968 53.3955L62.5072 52.368C64.5617 52.7893 66.6046 53.3568 68.5792 54.0552L68.2295 55.0442ZM50.0606 52.6812L49.9648 51.6369C51.0146 51.5406 52.0938 51.4702 53.1725 51.4276C54.1931 51.4156 55.2508 51.4609 56.2673 51.5278L56.1987 52.5747C55.2047 52.5091 54.1936 52.4761 53.1933 52.4761C52.1532 52.5176 51.0924 52.587 50.0606 52.6812Z" fill="#3F3D56"/>
<path d="M18.287 140.496C26.1063 140.496 32.445 134.155 32.445 126.335C32.445 118.514 26.1063 112.174 18.287 112.174C10.4678 112.174 4.12904 118.514 4.12904 126.335C4.12904 134.155 10.4678 140.496 18.287 140.496Z" fill="#6C63FF"/>
<path d="M12.746 121.586C12.746 121.148 13.1103 120.792 13.5598 120.792H23.0142C23.4637 120.792 23.828 121.148 23.828 121.586V131.083C23.828 131.521 23.4637 131.877 23.0142 131.877H13.5598C13.1103 131.877 12.746 131.521 12.746 131.083V121.586ZM16.1697 130.071V125.066H14.5067V130.071H16.1697ZM15.3385 124.382C15.9182 124.382 16.2791 123.999 16.2791 123.518C16.2687 123.027 15.9189 122.653 15.3496 122.653C14.7802 122.653 14.4083 123.027 14.4083 123.518C14.4083 123.999 14.7692 124.382 15.3274 124.382H15.3385ZM18.7379 130.071V127.276C18.7379 127.126 18.749 126.977 18.7933 126.87C18.9132 126.571 19.1867 126.262 19.6466 126.262C20.2485 126.262 20.4889 126.72 20.4889 127.394V130.071H22.1519V127.201C22.1519 125.663 21.3318 124.948 20.2375 124.948C19.3551 124.948 18.9596 125.433 18.7379 125.774V125.791H18.7268L18.7379 125.774V125.066H17.0756C17.0964 125.536 17.0756 130.071 17.0756 130.071H18.7379Z" fill="white"/>
<path d="M60.0962 66.3546C67.9155 66.3546 74.2542 60.0145 74.2542 52.1937C74.2542 44.3728 67.9155 38.0327 60.0962 38.0327C52.277 38.0327 45.9383 44.3728 45.9383 52.1937C45.9383 60.0145 52.277 66.3546 60.0962 66.3546Z" fill="#6C63FF"/>
<path fill-rule="evenodd" clip-rule="evenodd" d="M60.2769 49.6283C61.0515 48.5806 61.9078 47.7558 63.0029 47.7558C65.0703 47.7558 66.773 50.3879 66.7738 53.5218C66.7738 55.4336 65.9508 56.6315 64.4727 56.6315C63.1848 56.6315 62.4737 55.9086 61.1976 53.7731L60.6409 52.8356L60.5424 52.6712C60.3972 52.4257 60.2497 52.1817 60.1 51.939L59.1168 53.6754C57.7204 56.1173 56.9342 56.6315 55.8425 56.6315C54.3251 56.6315 53.4187 55.4503 53.4187 53.5769C53.4187 50.5841 55.0838 47.7558 57.2564 47.7558C57.5226 47.7558 57.778 47.7883 58.0276 47.8576C58.2863 47.9294 58.5376 48.0413 58.7896 48.1974C59.2712 48.4971 59.7528 48.9612 60.2769 49.6283ZM61.5423 51.4849C61.3319 51.1426 61.1299 50.8279 60.9355 50.539L60.9305 50.5324C61.6357 49.4429 62.2183 48.9011 62.9102 48.9011C64.3483 48.9011 65.4993 51.0191 65.4993 53.6203C65.4993 54.6121 65.1738 55.1873 64.5019 55.1873C63.8567 55.1873 63.5487 54.7615 62.3235 52.7914L61.5414 51.4849H61.5423ZM57.4634 49.2217C58.0685 49.3052 58.6194 49.751 59.4164 50.8922C58.9565 51.5966 58.5016 52.3042 58.0518 53.0151C56.9192 54.7899 56.5277 55.1881 55.8976 55.1881C55.2491 55.1881 54.8626 54.6188 54.8626 53.602C54.8626 51.4298 55.946 49.2075 57.238 49.2075C57.314 49.2075 57.3891 49.2125 57.4634 49.2225V49.2217Z" fill="white"/>
<path d="M14.5354 88.7538C22.3546 88.7538 28.6933 82.4137 28.6933 74.5929C28.6933 66.772 22.3546 60.4319 14.5354 60.4319C6.71612 60.4319 0.37738 66.772 0.37738 74.5929C0.37738 82.4137 6.71612 88.7538 14.5354 88.7538Z" fill="#6C63FF"/>
<path d="M12.2504 79.5882C16.8895 79.5882 19.4272 75.7435 19.4272 72.4153C19.4272 72.3077 19.4272 72.1986 19.4226 72.091C19.9166 71.7333 20.3431 71.2904 20.6818 70.7831C20.2203 70.9866 19.7312 71.1207 19.2305 71.1811C19.758 70.8658 20.153 70.3696 20.3422 69.7848C19.8467 70.0785 19.3043 70.2846 18.7388 70.3942C17.7843 69.3775 16.1866 69.3272 15.1701 70.2819C14.5137 70.8984 14.2353 71.8178 14.4393 72.695C12.4112 72.5933 10.5215 71.6356 9.24016 70.0599C8.5726 71.2131 8.91485 72.6866 10.0223 73.4274C9.62242 73.4138 9.23134 73.3064 8.88059 73.1138V73.1484C8.88201 74.3485 9.72712 75.3819 10.9028 75.6214C10.6863 75.681 10.4627 75.7107 10.2382 75.7097C10.0799 75.7102 9.92194 75.6956 9.76645 75.6659C10.0969 76.6933 11.0441 77.3966 12.1229 77.4157C11.229 78.118 10.1248 78.4988 8.98815 78.497C8.78787 78.4978 8.58773 78.4863 8.38887 78.4624C9.5425 79.198 10.8823 79.5886 12.2504 79.5882Z" fill="white"/>
<path d="M65.5073 156.051C73.3265 156.051 79.6653 149.711 79.6653 141.891C79.6653 134.07 73.3265 127.73 65.5073 127.73C57.6881 127.73 51.3493 134.07 51.3493 141.891C51.3493 149.711 57.6881 156.051 65.5073 156.051Z" fill="#6C63FF"/>
<path d="M65.5073 135.851C63.8687 135.851 63.6626 135.858 63.0188 135.887C62.3749 135.917 61.9364 136.018 61.5522 136.168C61.1492 136.32 60.7842 136.557 60.4827 136.865C60.1755 137.167 59.9378 137.532 59.786 137.935C59.6365 138.318 59.5346 138.757 59.5052 139.399C59.4765 140.045 59.469 140.25 59.469 141.891C59.469 143.531 59.4765 143.736 59.5052 144.38C59.5354 145.024 59.6365 145.462 59.786 145.846C59.9407 146.244 60.1468 146.58 60.4827 146.916C60.8178 147.252 61.1544 147.459 61.5514 147.613C61.9364 147.763 62.3742 147.864 63.0173 147.894C63.6619 147.923 63.8672 147.93 65.5073 147.93C67.1475 147.93 67.352 147.923 67.9966 147.894C68.639 147.864 69.079 147.763 69.4632 147.613C69.8659 147.461 70.2307 147.224 70.532 146.916C70.8679 146.58 71.0739 146.244 71.2287 145.846C71.3774 145.462 71.4793 145.024 71.5095 144.38C71.5381 143.736 71.5457 143.531 71.5457 141.891C71.5457 140.25 71.5381 140.045 71.5095 139.4C71.4793 138.757 71.3774 138.318 71.2287 137.935C71.0769 137.532 70.8392 137.167 70.532 136.865C70.2306 136.557 69.8655 136.319 69.4625 136.168C69.0775 136.018 68.6382 135.917 67.9959 135.887C67.3513 135.858 67.1467 135.851 65.5058 135.851H65.5073ZM64.9661 136.94H65.5081C67.1203 136.94 67.3113 136.945 67.9476 136.974C68.5363 137.001 68.8564 137.1 69.0692 137.182C69.3507 137.291 69.5523 137.423 69.7636 137.634C69.975 137.845 70.1055 138.046 70.215 138.329C70.298 138.541 70.3961 138.861 70.4226 139.45C70.452 140.086 70.458 140.277 70.458 141.889C70.458 143.501 70.452 143.693 70.4226 144.329C70.3961 144.918 70.2973 145.237 70.215 145.45C70.1182 145.712 69.9637 145.949 69.7629 146.144C69.5515 146.355 69.3507 146.486 69.0685 146.595C68.8571 146.678 68.5371 146.777 67.9476 146.804C67.3113 146.832 67.1203 146.839 65.5081 146.839C63.8958 146.839 63.7041 146.832 63.0678 146.804C62.4791 146.777 62.1598 146.678 61.947 146.595C61.6847 146.499 61.4474 146.344 61.2525 146.144C61.0516 145.949 60.8968 145.712 60.7997 145.449C60.7174 145.237 60.6185 144.917 60.5921 144.328C60.5634 143.692 60.5574 143.501 60.5574 141.887C60.5574 140.275 60.5634 140.085 60.5921 139.448C60.6193 138.859 60.7174 138.539 60.8004 138.326C60.9099 138.045 61.0412 137.843 61.2525 137.632C61.4639 137.42 61.6647 137.29 61.947 137.18C62.1598 137.097 62.4791 136.999 63.0678 136.972C63.6249 136.946 63.8407 136.939 64.9661 136.938L64.9661 136.94ZM68.7311 137.942C68.3309 137.942 68.0064 138.267 68.0064 138.667C68.0064 139.067 68.3309 139.392 68.7311 139.392C69.1312 139.392 69.4557 139.067 69.4557 138.667C69.4557 138.267 69.1312 137.942 68.7311 137.942ZM65.5081 138.789C63.7954 138.762 62.3853 140.129 62.3586 141.843C62.3319 143.556 63.6986 144.966 65.4113 144.993C65.4436 144.993 65.4758 144.993 65.5081 144.993C67.2208 144.966 68.5875 143.556 68.5608 141.842C68.5346 140.167 67.1831 138.815 65.5081 138.789ZM65.5081 139.877C66.6198 139.877 67.5215 140.778 67.522 141.89C67.5224 143.002 66.6216 143.904 65.5098 143.904H65.5081C64.3963 143.904 63.495 143.003 63.495 141.891C63.495 140.779 64.3963 139.877 65.5081 139.877Z" fill="white"/>
</g>
<defs>
<clipPath id="clip0_2_993">
<rect width="251" height="201" fill="white"/>
</clipPath>
</defs>
</svg>
