<svg width="327" height="352" viewBox="0 0 327 352" fill="none" xmlns="http://www.w3.org/2000/svg">
<mask id="mask0_2_1061" style="mask-type:luminance" maskUnits="userSpaceOnUse" x="43" y="40" width="242" height="242">
<path d="M139.99 40.95H130.386V50.554H139.99V40.95Z" fill="white"/>
<path d="M178.406 40.95H168.802V50.554H178.406V40.95Z" fill="white"/>
<path d="M130.386 50.554H120.782V60.158H130.386V50.554Z" fill="white"/>
<path d="M139.99 50.554H130.386V60.158H139.99V50.554Z" fill="white"/>
<path d="M159.198 50.554H149.594V60.158H159.198V50.554Z" fill="white"/>
<path d="M168.802 50.554H159.198V60.158H168.802V50.554Z" fill="white"/>
<path d="M178.406 50.554H168.802V60.158H178.406V50.554Z" fill="white"/>
<path d="M188.01 50.554H178.406V60.158H188.01V50.554Z" fill="white"/>
<path d="M197.614 50.554H188.01V60.158H197.614V50.554Z" fill="white"/>
<path d="M207.218 50.554H197.614V60.158H207.218V50.554Z" fill="white"/>
<path d="M139.99 60.158H130.386V69.762H139.99V60.158Z" fill="white"/>
<path d="M149.594 60.158H139.99V69.762H149.594V60.158Z" fill="white"/>
<path d="M159.198 60.158H149.594V69.762H159.198V60.158Z" fill="white"/>
<path d="M188.01 60.158H178.406V69.762H188.01V60.158Z" fill="white"/>
<path d="M207.218 60.158H197.614V69.762H207.218V60.158Z" fill="white"/>
<path d="M130.386 69.762H120.782V79.366H130.386V69.762Z" fill="white"/>
<path d="M139.99 69.762H130.386V79.366H139.99V69.762Z" fill="white"/>
<path d="M159.198 69.762H149.594V79.366H159.198V69.762Z" fill="white"/>
<path d="M178.406 69.762H168.802V79.366H178.406V69.762Z" fill="white"/>
<path d="M188.01 69.762H178.406V79.366H188.01V69.762Z" fill="white"/>
<path d="M149.594 79.366H139.99V88.97H149.594V79.366Z" fill="white"/>
<path d="M168.802 79.366H159.198V88.97H168.802V79.366Z" fill="white"/>
<path d="M188.01 79.366H178.406V88.97H188.01V79.366Z" fill="white"/>
<path d="M207.218 79.366H197.614V88.97H207.218V79.366Z" fill="white"/>
<path d="M130.386 88.97H120.782V98.574H130.386V88.97Z" fill="white"/>
<path d="M149.594 88.97H139.99V98.574H149.594V88.97Z" fill="white"/>
<path d="M197.614 88.97H188.01V98.574H197.614V88.97Z" fill="white"/>
<path d="M207.218 88.97H197.614V98.574H207.218V88.97Z" fill="white"/>
<path d="M130.386 98.574H120.782V108.178H130.386V98.574Z" fill="white"/>
<path d="M149.594 98.574H139.99V108.178H149.594V98.574Z" fill="white"/>
<path d="M168.802 98.574H159.198V108.178H168.802V98.574Z" fill="white"/>
<path d="M188.01 98.574H178.406V108.178H188.01V98.574Z" fill="white"/>
<path d="M207.218 98.574H197.614V108.178H207.218V98.574Z" fill="white"/>
<path d="M168.802 108.178H159.198V117.782H168.802V108.178Z" fill="white"/>
<path d="M188.01 108.178H178.406V117.782H188.01V108.178Z" fill="white"/>
<path d="M197.614 108.178H188.01V117.782H197.614V108.178Z" fill="white"/>
<path d="M53.554 117.782H43.95V127.386H53.554V117.782Z" fill="white"/>
<path d="M63.158 117.782H53.554V127.386H63.158V117.782Z" fill="white"/>
<path d="M72.7619 117.782H63.1579V127.386H72.7619V117.782Z" fill="white"/>
<path d="M82.366 117.782H72.762V127.386H82.366V117.782Z" fill="white"/>
<path d="M91.97 117.782H82.366V127.386H91.97V117.782Z" fill="white"/>
<path d="M111.178 117.782H101.574V127.386H111.178V117.782Z" fill="white"/>
<path d="M120.782 117.782H111.178V127.386H120.782V117.782Z" fill="white"/>
<path d="M130.386 117.782H120.782V127.386H130.386V117.782Z" fill="white"/>
<path d="M139.99 117.782H130.386V127.386H139.99V117.782Z" fill="white"/>
<path d="M149.594 117.782H139.99V127.386H149.594V117.782Z" fill="white"/>
<path d="M168.802 117.782H159.198V127.386H168.802V117.782Z" fill="white"/>
<path d="M178.406 117.782H168.802V127.386H178.406V117.782Z" fill="white"/>
<path d="M188.01 117.782H178.406V127.386H188.01V117.782Z" fill="white"/>
<path d="M216.822 117.782H207.218V127.386H216.822V117.782Z" fill="white"/>
<path d="M236.03 117.782H226.426V127.386H236.03V117.782Z" fill="white"/>
<path d="M255.238 117.782H245.634V127.386H255.238V117.782Z" fill="white"/>
<path d="M274.446 117.782H264.842V127.386H274.446V117.782Z" fill="white"/>
<path d="M53.554 127.386H43.95V136.99H53.554V127.386Z" fill="white"/>
<path d="M82.366 127.386H72.762V136.99H82.366V127.386Z" fill="white"/>
<path d="M101.574 127.386H91.97V136.99H101.574V127.386Z" fill="white"/>
<path d="M130.386 127.386H120.782V136.99H130.386V127.386Z" fill="white"/>
<path d="M139.99 127.386H130.386V136.99H139.99V127.386Z" fill="white"/>
<path d="M188.01 127.386H178.406V136.99H188.01V127.386Z" fill="white"/>
<path d="M207.218 127.386H197.614V136.99H207.218V127.386Z" fill="white"/>
<path d="M216.822 127.386H207.218V136.99H216.822V127.386Z" fill="white"/>
<path d="M236.03 127.386H226.426V136.99H236.03V127.386Z" fill="white"/>
<path d="M274.446 127.386H264.842V136.99H274.446V127.386Z" fill="white"/>
<path d="M63.158 136.99H53.554V146.594H63.158V136.99Z" fill="white"/>
<path d="M111.178 136.99H101.574V146.594H111.178V136.99Z" fill="white"/>
<path d="M130.386 136.99H120.782V146.594H130.386V136.99Z" fill="white"/>
<path d="M139.99 136.99H130.386V146.594H139.99V136.99Z" fill="white"/>
<path d="M159.198 136.99H149.594V146.594H159.198V136.99Z" fill="white"/>
<path d="M168.802 136.99H159.198V146.594H168.802V136.99Z" fill="white"/>
<path d="M178.406 136.99H168.802V146.594H178.406V136.99Z" fill="white"/>
<path d="M197.614 136.99H188.01V146.594H197.614V136.99Z" fill="white"/>
<path d="M226.426 136.99H216.822V146.594H226.426V136.99Z" fill="white"/>
<path d="M236.03 136.99H226.426V146.594H236.03V136.99Z" fill="white"/>
<path d="M255.238 136.99H245.634V146.594H255.238V136.99Z" fill="white"/>
<path d="M274.446 136.99H264.842V146.594H274.446V136.99Z" fill="white"/>
<path d="M284.05 136.99H274.446V146.594H284.05V136.99Z" fill="white"/>
<path d="M82.366 146.594H72.762V156.198H82.366V146.594Z" fill="white"/>
<path d="M91.97 146.594H82.366V156.198H91.97V146.594Z" fill="white"/>
<path d="M120.782 146.594H111.178V156.198H120.782V146.594Z" fill="white"/>
<path d="M130.386 146.594H120.782V156.198H130.386V146.594Z" fill="white"/>
<path d="M139.99 146.594H130.386V156.198H139.99V146.594Z" fill="white"/>
<path d="M149.594 146.594H139.99V156.198H149.594V146.594Z" fill="white"/>
<path d="M159.198 146.594H149.594V156.198H159.198V146.594Z" fill="white"/>
<path d="M207.218 146.594H197.614V156.198H207.218V146.594Z" fill="white"/>
<path d="M284.05 146.594H274.446V156.198H284.05V146.594Z" fill="white"/>
<path d="M53.554 156.198H43.95V165.802H53.554V156.198Z" fill="white"/>
<path d="M101.574 156.198H91.97V165.802H101.574V156.198Z" fill="white"/>
<path d="M111.178 156.198H101.574V165.802H111.178V156.198Z" fill="white"/>
<path d="M120.782 156.198H111.178V165.802H120.782V156.198Z" fill="white"/>
<path d="M139.99 156.198H130.386V165.802H139.99V156.198Z" fill="white"/>
<path d="M159.198 156.198H149.594V165.802H159.198V156.198Z" fill="white"/>
<path d="M178.406 156.198H168.802V165.802H178.406V156.198Z" fill="white"/>
<path d="M188.01 156.198H178.406V165.802H188.01V156.198Z" fill="white"/>
<path d="M216.822 156.198H207.218V165.802H216.822V156.198Z" fill="white"/>
<path d="M226.426 156.198H216.822V165.802H226.426V156.198Z" fill="white"/>
<path d="M236.03 156.198H226.426V165.802H236.03V156.198Z" fill="white"/>
<path d="M245.634 156.198H236.03V165.802H245.634V156.198Z" fill="white"/>
<path d="M264.842 156.198H255.238V165.802H264.842V156.198Z" fill="white"/>
<path d="M274.446 156.198H264.842V165.802H274.446V156.198Z" fill="white"/>
<path d="M284.05 156.198H274.446V165.802H284.05V156.198Z" fill="white"/>
<path d="M53.554 165.802H43.95V175.406H53.554V165.802Z" fill="white"/>
<path d="M72.7619 165.802H63.1579V175.406H72.7619V165.802Z" fill="white"/>
<path d="M82.366 165.802H72.762V175.406H82.366V165.802Z" fill="white"/>
<path d="M91.97 165.802H82.366V175.406H91.97V165.802Z" fill="white"/>
<path d="M139.99 165.802H130.386V175.406H139.99V165.802Z" fill="white"/>
<path d="M149.594 165.802H139.99V175.406H149.594V165.802Z" fill="white"/>
<path d="M168.802 165.802H159.198V175.406H168.802V165.802Z" fill="white"/>
<path d="M178.406 165.802H168.802V175.406H178.406V165.802Z" fill="white"/>
<path d="M216.822 165.802H207.218V175.406H216.822V165.802Z" fill="white"/>
<path d="M236.03 165.802H226.426V175.406H236.03V165.802Z" fill="white"/>
<path d="M255.238 165.802H245.634V175.406H255.238V165.802Z" fill="white"/>
<path d="M274.446 165.802H264.842V175.406H274.446V165.802Z" fill="white"/>
<path d="M53.554 175.406H43.95V185.01H53.554V175.406Z" fill="white"/>
<path d="M82.366 175.406H72.762V185.01H82.366V175.406Z" fill="white"/>
<path d="M111.178 175.406H101.574V185.01H111.178V175.406Z" fill="white"/>
<path d="M130.386 175.406H120.782V185.01H130.386V175.406Z" fill="white"/>
<path d="M149.594 175.406H139.99V185.01H149.594V175.406Z" fill="white"/>
<path d="M188.01 175.406H178.406V185.01H188.01V175.406Z" fill="white"/>
<path d="M197.614 175.406H188.01V185.01H197.614V175.406Z" fill="white"/>
<path d="M226.426 175.406H216.822V185.01H226.426V175.406Z" fill="white"/>
<path d="M236.03 175.406H226.426V185.01H236.03V175.406Z" fill="white"/>
<path d="M245.634 175.406H236.03V185.01H245.634V175.406Z" fill="white"/>
<path d="M255.238 175.406H245.634V185.01H255.238V175.406Z" fill="white"/>
<path d="M274.446 175.406H264.842V185.01H274.446V175.406Z" fill="white"/>
<path d="M284.05 175.406H274.446V185.01H284.05V175.406Z" fill="white"/>
<path d="M53.554 185.01H43.95V194.614H53.554V185.01Z" fill="white"/>
<path d="M72.7619 185.01H63.1579V194.614H72.7619V185.01Z" fill="white"/>
<path d="M82.366 185.01H72.762V194.614H82.366V185.01Z" fill="white"/>
<path d="M130.386 185.01H120.782V194.614H130.386V185.01Z" fill="white"/>
<path d="M149.594 185.01H139.99V194.614H149.594V185.01Z" fill="white"/>
<path d="M168.802 185.01H159.198V194.614H168.802V185.01Z" fill="white"/>
<path d="M188.01 185.01H178.406V194.614H188.01V185.01Z" fill="white"/>
<path d="M197.614 185.01H188.01V194.614H197.614V185.01Z" fill="white"/>
<path d="M207.218 185.01H197.614V194.614H207.218V185.01Z" fill="white"/>
<path d="M216.822 185.01H207.218V194.614H216.822V185.01Z" fill="white"/>
<path d="M236.03 185.01H226.426V194.614H236.03V185.01Z" fill="white"/>
<path d="M245.634 185.01H236.03V194.614H245.634V185.01Z" fill="white"/>
<path d="M284.05 185.01H274.446V194.614H284.05V185.01Z" fill="white"/>
<path d="M53.554 194.614H43.95V204.218H53.554V194.614Z" fill="white"/>
<path d="M72.7619 194.614H63.1579V204.218H72.7619V194.614Z" fill="white"/>
<path d="M101.574 194.614H91.97V204.218H101.574V194.614Z" fill="white"/>
<path d="M111.178 194.614H101.574V204.218H111.178V194.614Z" fill="white"/>
<path d="M130.386 194.614H120.782V204.218H130.386V194.614Z" fill="white"/>
<path d="M139.99 194.614H130.386V204.218H139.99V194.614Z" fill="white"/>
<path d="M168.802 194.614H159.198V204.218H168.802V194.614Z" fill="white"/>
<path d="M178.406 194.614H168.802V204.218H178.406V194.614Z" fill="white"/>
<path d="M188.01 194.614H178.406V204.218H188.01V194.614Z" fill="white"/>
<path d="M197.614 194.614H188.01V204.218H197.614V194.614Z" fill="white"/>
<path d="M207.218 194.614H197.614V204.218H207.218V194.614Z" fill="white"/>
<path d="M216.822 194.614H207.218V204.218H216.822V194.614Z" fill="white"/>
<path d="M226.426 194.614H216.822V204.218H226.426V194.614Z" fill="white"/>
<path d="M236.03 194.614H226.426V204.218H236.03V194.614Z" fill="white"/>
<path d="M245.634 194.614H236.03V204.218H245.634V194.614Z" fill="white"/>
<path d="M264.842 194.614H255.238V204.218H264.842V194.614Z" fill="white"/>
<path d="M130.386 204.218H120.782V213.822H130.386V204.218Z" fill="white"/>
<path d="M178.406 204.218H168.802V213.822H178.406V204.218Z" fill="white"/>
<path d="M197.614 204.218H188.01V213.822H197.614V204.218Z" fill="white"/>
<path d="M207.218 204.218H197.614V213.822H207.218V204.218Z" fill="white"/>
<path d="M245.634 204.218H236.03V213.822H245.634V204.218Z" fill="white"/>
<path d="M255.238 204.218H245.634V213.822H255.238V204.218Z" fill="white"/>
<path d="M130.386 213.822H120.782V223.426H130.386V213.822Z" fill="white"/>
<path d="M149.594 213.822H139.99V223.426H149.594V213.822Z" fill="white"/>
<path d="M159.198 213.822H149.594V223.426H159.198V213.822Z" fill="white"/>
<path d="M168.802 213.822H159.198V223.426H168.802V213.822Z" fill="white"/>
<path d="M178.406 213.822H168.802V223.426H178.406V213.822Z" fill="white"/>
<path d="M188.01 213.822H178.406V223.426H188.01V213.822Z" fill="white"/>
<path d="M207.218 213.822H197.614V223.426H207.218V213.822Z" fill="white"/>
<path d="M226.426 213.822H216.822V223.426H226.426V213.822Z" fill="white"/>
<path d="M245.634 213.822H236.03V223.426H245.634V213.822Z" fill="white"/>
<path d="M264.842 213.822H255.238V223.426H264.842V213.822Z" fill="white"/>
<path d="M274.446 213.822H264.842V223.426H274.446V213.822Z" fill="white"/>
<path d="M284.05 213.822H274.446V223.426H284.05V213.822Z" fill="white"/>
<path d="M149.594 223.426H139.99V233.03H149.594V223.426Z" fill="white"/>
<path d="M159.198 223.426H149.594V233.03H159.198V223.426Z" fill="white"/>
<path d="M207.218 223.426H197.614V233.03H207.218V223.426Z" fill="white"/>
<path d="M245.634 223.426H236.03V233.03H245.634V223.426Z" fill="white"/>
<path d="M255.238 223.426H245.634V233.03H255.238V223.426Z" fill="white"/>
<path d="M284.05 223.426H274.446V233.03H284.05V223.426Z" fill="white"/>
<path d="M130.386 233.03H120.782V242.634H130.386V233.03Z" fill="white"/>
<path d="M159.198 233.03H149.594V242.634H159.198V233.03Z" fill="white"/>
<path d="M168.802 233.03H159.198V242.634H168.802V233.03Z" fill="white"/>
<path d="M178.406 233.03H168.802V242.634H178.406V233.03Z" fill="white"/>
<path d="M188.01 233.03H178.406V242.634H188.01V233.03Z" fill="white"/>
<path d="M197.614 233.03H188.01V242.634H197.614V233.03Z" fill="white"/>
<path d="M207.218 233.03H197.614V242.634H207.218V233.03Z" fill="white"/>
<path d="M216.822 233.03H207.218V242.634H216.822V233.03Z" fill="white"/>
<path d="M226.426 233.03H216.822V242.634H226.426V233.03Z" fill="white"/>
<path d="M236.03 233.03H226.426V242.634H236.03V233.03Z" fill="white"/>
<path d="M245.634 233.03H236.03V242.634H245.634V233.03Z" fill="white"/>
<path d="M264.842 233.03H255.238V242.634H264.842V233.03Z" fill="white"/>
<path d="M130.386 242.634H120.782V252.238H130.386V242.634Z" fill="white"/>
<path d="M168.802 242.634H159.198V252.238H168.802V242.634Z" fill="white"/>
<path d="M178.406 242.634H168.802V252.238H178.406V242.634Z" fill="white"/>
<path d="M216.822 242.634H207.218V252.238H216.822V242.634Z" fill="white"/>
<path d="M226.426 242.634H216.822V252.238H226.426V242.634Z" fill="white"/>
<path d="M245.634 242.634H236.03V252.238H245.634V242.634Z" fill="white"/>
<path d="M255.238 242.634H245.634V252.238H255.238V242.634Z" fill="white"/>
<path d="M264.842 242.634H255.238V252.238H264.842V242.634Z" fill="white"/>
<path d="M274.446 242.634H264.842V252.238H274.446V242.634Z" fill="white"/>
<path d="M284.05 242.634H274.446V252.238H284.05V242.634Z" fill="white"/>
<path d="M130.386 252.238H120.782V261.842H130.386V252.238Z" fill="white"/>
<path d="M178.406 252.238H168.802V261.842H178.406V252.238Z" fill="white"/>
<path d="M216.822 252.238H207.218V261.842H216.822V252.238Z" fill="white"/>
<path d="M255.238 252.238H245.634V261.842H255.238V252.238Z" fill="white"/>
<path d="M264.842 252.238H255.238V261.842H264.842V252.238Z" fill="white"/>
<path d="M284.05 252.238H274.446V261.842H284.05V252.238Z" fill="white"/>
<path d="M130.386 261.842H120.782V271.446H130.386V261.842Z" fill="white"/>
<path d="M139.99 261.842H130.386V271.446H139.99V261.842Z" fill="white"/>
<path d="M168.802 261.842H159.198V271.446H168.802V261.842Z" fill="white"/>
<path d="M188.01 261.842H178.406V271.446H188.01V261.842Z" fill="white"/>
<path d="M207.218 261.842H197.614V271.446H207.218V261.842Z" fill="white"/>
<path d="M216.822 261.842H207.218V271.446H216.822V261.842Z" fill="white"/>
<path d="M226.426 261.842H216.822V271.446H226.426V261.842Z" fill="white"/>
<path d="M236.03 261.842H226.426V271.446H236.03V261.842Z" fill="white"/>
<path d="M245.634 261.842H236.03V271.446H245.634V261.842Z" fill="white"/>
<path d="M255.238 261.842H245.634V271.446H255.238V261.842Z" fill="white"/>
<path d="M284.05 261.842H274.446V271.446H284.05V261.842Z" fill="white"/>
<path d="M130.386 271.446H120.782V281.05H130.386V271.446Z" fill="white"/>
<path d="M139.99 271.446H130.386V281.05H139.99V271.446Z" fill="white"/>
<path d="M159.198 271.446H149.594V281.05H159.198V271.446Z" fill="white"/>
<path d="M178.406 271.446H168.802V281.05H178.406V271.446Z" fill="white"/>
<path d="M188.01 271.446H178.406V281.05H188.01V271.446Z" fill="white"/>
<path d="M226.426 271.446H216.822V281.05H226.426V271.446Z" fill="white"/>
<path d="M236.03 271.446H226.426V281.05H236.03V271.446Z" fill="white"/>
<path d="M245.634 271.446H236.03V281.05H245.634V271.446Z" fill="white"/>
<path d="M255.238 271.446H245.634V281.05H255.238V271.446Z" fill="white"/>
<path d="M264.842 271.446H255.238V281.05H264.842V271.446Z" fill="white"/>
<path d="M274.446 271.446H264.842V281.05H274.446V271.446Z" fill="white"/>
<path d="M284.05 271.446H274.446V281.05H284.05V271.446Z" fill="white"/>
<path d="M101.094 40.95H54.0342H43.95V51.0342V98.0938V108.178H54.0342H101.094H111.178V98.0938V51.0342V40.95H101.094ZM101.094 98.0938H54.0342V51.0342H101.094V98.0938Z" fill="white"/>
<path d="M273.966 40.95H226.906H216.822V51.0342V98.0938V108.178H226.906H273.966H284.05V98.0938V51.0342V40.95H273.966ZM273.966 98.0938H226.906V51.0342H273.966V98.0938Z" fill="white"/>
<path d="M101.094 213.822H54.0342H43.95V223.906V270.966V281.05H54.0342H101.094H111.178V270.966V223.906V213.822H101.094ZM101.094 270.966H54.0342V223.906H101.094V270.966Z" fill="white"/>
<path d="M91.9699 60.158H63.1579V88.97H91.9699V60.158Z" fill="white"/>
<path d="M264.842 60.158H236.03V88.97H264.842V60.158Z" fill="white"/>
<path d="M91.9699 233.03H63.1579V261.842H91.9699V233.03Z" fill="white"/>
</mask>
<g mask="url(#mask0_2_1061)">
<path d="M284.05 40.95H43.95V281.05H284.05V40.95Z" fill="#2D2B4E"/>
</g>
<path d="M272.201 18.087H308.112V54.0859" stroke="#2D2B4E" stroke-width="4" stroke-linecap="round" stroke-linejoin="round"/>
<path d="M272.201 333.062H308.112V297.063" stroke="#2D2B4E" stroke-width="4" stroke-linecap="round" stroke-linejoin="round"/>
<path d="M54.2669 18.087H18.3556V54.0859" stroke="#2D2B4E" stroke-width="4" stroke-linecap="round" stroke-linejoin="round"/>
<path d="M54.2669 333.062H18.3556V297.063" stroke="#2D2B4E" stroke-width="4" stroke-linecap="round" stroke-linejoin="round"/>
</svg>
